<?xml version="1.0" encoding="utf-8"?>
<!-- Generator: Adobe Illustrator 27.3.0, SVG Export Plug-In . SVG Version: 6.00 Build 0)  -->
<svg version="1.1" id="Layer_1" xmlns="http://www.w3.org/2000/svg" xmlns:xlink="http://www.w3.org/1999/xlink" x="0px" y="0px"
	 viewBox="0 0 119.4 82.02" style="enable-background:new 0 0 119.4 82.02;" xml:space="preserve">
<style type="text/css">
	.st0{fill:#1C2735;}
	.st1{fill:#FFFFFF;stroke:#FFFFFF;stroke-miterlimit:10;}
</style>
<rect class="st0" width="119.4" height="82.02"/>
<g>
	<path class="st1" d="M21.28,12.16H49.4c4.69,0,7.03,2.34,7.03,7.03V43.8c0,4.69-2.34,7.03-7.03,7.03H28.31l3.52-10.55h14.06V22.71
		H24.79V64.9H14.25v-45.7C14.25,14.51,16.59,12.16,21.28,12.16z"/>
	<path class="st1" d="M63.46,64.9V19.16c0-4.69,2.34-7.03,7.03-7.03h28.12c4.69,0,7.03,2.34,7.03,7.03V64.9H95.11V50.8H74.01v14.1
		H63.46z M95.11,22.67H74.01v17.58h21.09V22.67z"/>
</g>
<g>
</g>
<g>
</g>
<g>
</g>
<g>
</g>
<g>
</g>
<g>
</g>
</svg>
